<svg width="24" height="23" viewBox="0 0 24 23" fill="none" xmlns="http://www.w3.org/2000/svg">
<path d="M12 8.46682C12.234 7.34988 13.547 2.25484 17.382 2.25484C19.602 2.25484 22 3.8016 22 7.24417C22 11.1405 18.373 15.691 12 19.8387C5.627 15.691 2 11.1405 2 7.24417C2 3.76969 4.369 2.25284 6.577 2.25284C10.5 2.25284 11.722 7.36484 12 8.46682ZM0 7.24417C0 11.3011 3.06 16.6993 12 22.2002C20.94 16.6993 24 11.3011 24 7.24417C24 -0.696081 14.352 -1.75917 12 3.51738C9.662 -1.73025 0 -0.740958 0 7.24417Z" fill="black"/>
</svg>
